<?xml version="1.0" encoding="utf-8"?>
<!-- Generator: Adobe Illustrator 17.1.0, SVG Export Plug-In . SVG Version: 6.00 Build 0)  -->
<!DOCTYPE svg PUBLIC "-//W3C//DTD SVG 1.1//EN" "http://www.w3.org/Graphics/SVG/1.1/DTD/svg11.dtd">
<svg version="1.1" id="Layer_1" xmlns="http://www.w3.org/2000/svg" xmlns:xlink="http://www.w3.org/1999/xlink" x="0px" y="0px"
	 viewBox="0 0 50 50" enable-background="new 0 0 50 50" xml:space="preserve">
<path fill="#547BBC" d="M24.9,50.1C38.8,50.1,50,38.9,50,25.1S38.8,0,24.9,0S-0.1,11.2-0.1,25.1S11.1,50.1,24.9,50.1"/>
<path fill="#FFFFFF" d="M18.9,20.4h2.7v-2.5c0-1.2,0-2.8,0.9-3.8c0.9-1.2,2.1-1.9,4-1.9c3.2,0,4.7,0.4,4.7,0.4l-0.6,3.8
	c0,0-1-0.3-2.1-0.3c-1,0-1.9,0.3-1.9,1.3v2.9h4.1l-0.4,3.7h-3.8v13h-4.9v-13h-2.7C18.9,24.1,18.9,20.4,18.9,20.4z"/>
</svg>
