<?xml version="1.0" encoding="utf-8"?>
<!-- Generator: Adobe Illustrator 17.1.0, SVG Export Plug-In . SVG Version: 6.00 Build 0)  -->
<!DOCTYPE svg PUBLIC "-//W3C//DTD SVG 1.1//EN" "http://www.w3.org/Graphics/SVG/1.1/DTD/svg11.dtd">
<svg version="1.1" id="Layer_1" xmlns="http://www.w3.org/2000/svg" xmlns:xlink="http://www.w3.org/1999/xlink" x="0px" y="0px"
	 viewBox="0 0 50 50" enable-background="new 0 0 50 50" xml:space="preserve">
<g>
	<g>
		<path d="M49.7,24.9c0,13.9-10.8,24.9-24.5,24.9c-13.9,0-25.1-11.3-24.9-25C0.4,10.9,11.2,0.2,25.1,0.2C38.9,0.2,49.7,11,49.7,24.9
			z M45.3,25.3c0.2-11.1-9.2-20.6-20.5-20.7c-10.7-0.1-20,9-20.2,20c-0.2,11,9.2,20.6,20.4,20.7C35.5,45.6,45.2,36,45.3,25.3z"/>
		<path d="M26.3,27.2c-0.6,3,1.3,5.3,1.4,7.9c0.1,1.9,0.2,3.8-2.5,3.8c-2.5,0-2.8-1.7-2.8-3.7c0-2.6,1.7-5,1.3-8.4
			c-2.1,1.9-3.8,3.5-5.5,5.1c-1.2,1.1-2.6,1.8-4.2,1.2c-1.2-0.4-1.5-1.6-1.4-2.8c0.2-1.9,1.8-2.5,3.2-2.9c2.1-0.6,4.3-0.9,6.3-2.3
			c-2.1-1.9-4.9-1.8-7.3-2.9c-1.9-0.8-3.2-2.1-2-4.2c1.2-2,3.1-1.8,4.7-0.6c2,1.4,3.3,3.8,5.9,5.2c0.7-2.8-0.9-5.2-1-7.7
			c0-1.4-0.5-2.9,1.2-3.6c1-0.4,2.3-0.5,3.2,0.2c1.2,0.9,0.9,2.3,0.7,3.5c-0.3,2.5-1.9,4.7-1.5,7.5c2.4-0.9,3.8-2.9,5.5-4.4
			c1.2-1.1,2.4-2.6,4.3-1.5c1,0.6,1.6,1.6,1.4,2.8c-0.3,2-1.9,2.5-3.5,3.1c-2.1,0.7-4.4,0.6-6.2,2.4c2.1,2,4.9,1.9,7.3,2.9
			c1.2,0.5,2.3,1.1,2.5,2.5c0.1,1.2-0.4,2.2-1.5,2.8c-1.3,0.6-2.5,0.1-3.5-0.7C30.5,30.8,29,28.6,26.3,27.2z"/>
	</g>
</g>
</svg>
