<?xml version="1.0" encoding="utf-8"?>
<!-- Generator: Adobe Illustrator 17.1.0, SVG Export Plug-In . SVG Version: 6.00 Build 0)  -->
<!DOCTYPE svg PUBLIC "-//W3C//DTD SVG 1.1//EN" "http://www.w3.org/Graphics/SVG/1.1/DTD/svg11.dtd">
<svg version="1.1" xmlns="http://www.w3.org/2000/svg" xmlns:xlink="http://www.w3.org/1999/xlink" x="0px" y="0px"
	 viewBox="0 0 100 100" enable-background="new 0 0 100 100" xml:space="preserve">
<symbol  id="Email_3_" viewBox="-33 -24 66 48">
	<path fill="#FFFFFF" d="M-33,24v-48h66v48H-33z M0-6.7l8.3,6L25.8-19h-51.6L-8.3-0.8L0-6.7z M0,1.9L-21,17h42L0,1.9z M-10.8,1
		L-28-17v30.4L-10.8,1z M28-17L10.8,1L28,13.4V-17z"/>
</symbol>
<g id="Layer_1">
	
		<use xlink:href="#Email_3_"  width="66" height="48" id="XMLID_1_" x="-33" y="-24" transform="matrix(1 0 0 -1 50 46.7297)" display="none" overflow="visible"/>
</g>
<g id="Non_Editable_Symbol_Art">
	<g id="Email">
		<circle fill="#FCC460" cx="50" cy="50.2" r="50"/>
		<g id="Email_2_">
		</g>
		
			<use xlink:href="#Email_3_"  width="66" height="48" id="XMLID_3_" x="-33" y="-24" transform="matrix(0.7344 0 0 -0.7344 50 50)" overflow="visible"/>
	</g>
</g>
</svg>
