<?xml version="1.0" encoding="utf-8"?>
<!-- Generator: Adobe Illustrator 17.1.0, SVG Export Plug-In . SVG Version: 6.00 Build 0)  -->
<!DOCTYPE svg PUBLIC "-//W3C//DTD SVG 1.1//EN" "http://www.w3.org/Graphics/SVG/1.1/DTD/svg11.dtd">
<svg version="1.1" id="Layer_1" xmlns="http://www.w3.org/2000/svg" xmlns:xlink="http://www.w3.org/1999/xlink" x="0px" y="0px"
	 viewBox="0 0 50 50" enable-background="new 0 0 50 50" xml:space="preserve">
<path fill="#78CBEF" d="M25,49.8c13.7,0,24.8-11.1,24.8-24.8C49.8,11.3,38.7,0.2,25,0.2C11.3,0.2,0.2,11.3,0.2,25
	C0.2,38.7,11.3,49.8,25,49.8"/>
<path fill="#FFFFFF" d="M37.6,18.3c-0.9,0.4-1.9,0.7-2.9,0.8c1.1-0.6,1.9-1.6,2.2-2.8c-1,0.6-2.1,1-3.2,1.2c-0.9-1-2.3-1.6-3.7-1.6
	c-2.8,0-5.1,2.3-5.1,5.1c0,0.4,0,0.8,0.1,1.2c-4.2-0.2-8-2.2-10.5-5.3c-0.4,0.8-0.7,1.6-0.7,2.6c0,1.8,0.9,3.3,2.3,4.2
	c-0.8,0-1.6-0.3-2.3-0.6v0.1c0,2.5,1.8,4.5,4.1,5c-0.4,0.1-0.9,0.2-1.3,0.2c-0.3,0-0.6,0-1-0.1c0.6,2,2.5,3.5,4.8,3.5
	c-1.7,1.4-3.9,2.2-6.3,2.2c-0.4,0-0.8,0-1.2-0.1c2.3,1.4,4.9,2.3,7.8,2.3c9.4,0,14.5-7.8,14.5-14.5c0-0.2,0-0.4,0-0.7
	C36.1,20.2,36.9,19.3,37.6,18.3"/>
</svg>
